<?xml version="1.0" encoding="UTF-8"?>
<svg id="_Слой_1" xmlns="http://www.w3.org/2000/svg" version="1.1" viewBox="0 0 96 96">
  <!-- Generator: Adobe Illustrator 30.0.0, SVG Export Plug-In . SVG Version: 2.1.1 Build 123)  -->
  <defs>
    <style>
      .st0 {
        fill: #fff;
      }
    </style>
  </defs>
  <path class="st0" d="M72.24,35.77c8.07,6.41,13.19,16.12,14.18,26.41,1.6.18,4.13-.48,5.4.7.38.35.8,1.11.85,1.63.38,3.84-.3,8.31,0,12.21-.26,1.29-1.28,2.21-2.63,2.23H5.86c-1.26-.1-2.4-1.03-2.53-2.33-.38-3.8.3-8.25,0-12.12.62-3.13,3.92-2.19,6.25-2.33.41-3.83,1.28-7.55,2.74-11.11,2.45-5.96,6.43-11.28,11.43-15.31.01-5.43,4.23-9.96,9.53-10.77.52-.08,1.97-.04,2.31-.27,1.79-3.35,4.64-5.96,8.32-7.06,6.69-2.01,13.31.99,16.5,7.06.34.24,1.78.19,2.31.27,5.32.82,9.5,5.32,9.52,10.77v.02ZM56.54,62.19V29.88c0-.81-.75-2.66-1.17-3.39-3.46-5.95-12.29-5.47-15.14.77-.24.53-.76,2.09-.76,2.62v32.3h17.07,0ZM23.78,50.33v-7.24s-.16-.18-.2-.15c-.32.55-.87,1.03-1.29,1.54-3.65,4.39-6.37,10.32-7.24,15.99-.05.3-.22,1.27-.21,1.49,0,.09.08.24.14.24h19.21V30.13c-2.76.33-4.97,2.63-5.17,5.4-.32,4.55.36,9.57,0,14.1-.29,3.68-4.82,3.37-5.26.69h.02ZM61.8,30.13v32.05h19.21c.06,0,.14-.15.14-.24.01-.15-.17-1.22-.21-1.49-.72-4.79-2.81-9.83-5.57-13.79-.91-1.31-1.98-2.5-2.96-3.74-.05-.02-.2.13-.2.15v7.24c0,.75-1.3,1.92-2.04,2.03-1.85.28-3.08-.93-3.22-2.72-.36-4.53.33-9.55,0-14.1-.2-2.77-2.4-5.07-5.17-5.4h.02ZM8.59,67.45v6.25h78.82v-6.25H8.59Z"/>
</svg>